<mxfile host="Electron" modified="2024-04-20T12:02:47.832Z" agent="Mozilla/5.0 (Windows NT 10.0; Win64; x64) AppleWebKit/537.36 (KHTML, like Gecko) draw.io/24.0.4 Chrome/120.0.6099.109 Electron/28.1.0 Safari/537.36" etag="lqAp4C18Rr0RwmqMwskx" version="24.0.4" type="device">
  <diagram name="Page-1" id="N9s76UuwhcHsHS8wTcIj">
    <mxGraphModel dx="1909" dy="1129" grid="1" gridSize="10" guides="1" tooltips="1" connect="1" arrows="1" fold="1" page="1" pageScale="1" pageWidth="827" pageHeight="1169" math="0" shadow="0">
      <root>
        <mxCell id="0" />
        <mxCell id="1" parent="0" />
        <mxCell id="qS1Gej-VdCPAyixQhets-6" style="edgeStyle=orthogonalEdgeStyle;rounded=0;orthogonalLoop=1;jettySize=auto;html=1;exitX=0.5;exitY=1;exitDx=0;exitDy=0;entryX=0.5;entryY=0;entryDx=0;entryDy=0;" edge="1" parent="1" source="qS1Gej-VdCPAyixQhets-3" target="qS1Gej-VdCPAyixQhets-5">
          <mxGeometry relative="1" as="geometry" />
        </mxCell>
        <mxCell id="qS1Gej-VdCPAyixQhets-3" value="&lt;font face=&quot;Times New Roman&quot; style=&quot;font-size: 15px;&quot;&gt;Start&lt;/font&gt;" style="rounded=1;whiteSpace=wrap;html=1;" vertex="1" parent="1">
          <mxGeometry x="120" y="40" width="100" height="40" as="geometry" />
        </mxCell>
        <mxCell id="qS1Gej-VdCPAyixQhets-8" style="edgeStyle=orthogonalEdgeStyle;rounded=0;orthogonalLoop=1;jettySize=auto;html=1;exitX=0.5;exitY=1;exitDx=0;exitDy=0;entryX=0.5;entryY=0;entryDx=0;entryDy=0;" edge="1" parent="1" source="qS1Gej-VdCPAyixQhets-5" target="qS1Gej-VdCPAyixQhets-7">
          <mxGeometry relative="1" as="geometry" />
        </mxCell>
        <mxCell id="qS1Gej-VdCPAyixQhets-5" value="&lt;font face=&quot;Times New Roman&quot;&gt;&lt;span style=&quot;font-size: 15px;&quot;&gt;Declare variables&lt;/span&gt;&lt;/font&gt;" style="rounded=0;whiteSpace=wrap;html=1;" vertex="1" parent="1">
          <mxGeometry x="110" y="110" width="120" height="50" as="geometry" />
        </mxCell>
        <mxCell id="qS1Gej-VdCPAyixQhets-104" style="edgeStyle=orthogonalEdgeStyle;rounded=0;orthogonalLoop=1;jettySize=auto;html=1;exitX=0.5;exitY=1;exitDx=0;exitDy=0;entryX=0.5;entryY=0;entryDx=0;entryDy=0;" edge="1" parent="1" source="qS1Gej-VdCPAyixQhets-7" target="qS1Gej-VdCPAyixQhets-103">
          <mxGeometry relative="1" as="geometry" />
        </mxCell>
        <mxCell id="qS1Gej-VdCPAyixQhets-7" value="&lt;font face=&quot;Times New Roman&quot;&gt;&lt;span style=&quot;font-size: 15px;&quot;&gt;Initialize Serial port communication (set Baud rate to 9600)&lt;/span&gt;&lt;/font&gt;" style="rounded=0;whiteSpace=wrap;html=1;" vertex="1" parent="1">
          <mxGeometry x="60" y="190" width="220" height="70" as="geometry" />
        </mxCell>
        <mxCell id="qS1Gej-VdCPAyixQhets-13" style="edgeStyle=orthogonalEdgeStyle;rounded=0;orthogonalLoop=1;jettySize=auto;html=1;exitX=0.5;exitY=1;exitDx=0;exitDy=0;entryX=0.5;entryY=0;entryDx=0;entryDy=0;" edge="1" parent="1" source="qS1Gej-VdCPAyixQhets-10" target="qS1Gej-VdCPAyixQhets-12">
          <mxGeometry relative="1" as="geometry" />
        </mxCell>
        <mxCell id="qS1Gej-VdCPAyixQhets-10" value="&lt;font face=&quot;Times New Roman&quot; style=&quot;font-size: 15px;&quot;&gt;Print welcome message&lt;/font&gt;" style="shape=parallelogram;perimeter=parallelogramPerimeter;whiteSpace=wrap;html=1;fixedSize=1;" vertex="1" parent="1">
          <mxGeometry x="80" y="550" width="180" height="40" as="geometry" />
        </mxCell>
        <mxCell id="qS1Gej-VdCPAyixQhets-26" style="edgeStyle=orthogonalEdgeStyle;rounded=0;orthogonalLoop=1;jettySize=auto;html=1;exitX=0.5;exitY=1;exitDx=0;exitDy=0;entryX=0.5;entryY=0;entryDx=0;entryDy=0;" edge="1" parent="1" source="qS1Gej-VdCPAyixQhets-12" target="qS1Gej-VdCPAyixQhets-25">
          <mxGeometry relative="1" as="geometry" />
        </mxCell>
        <mxCell id="qS1Gej-VdCPAyixQhets-44" value="YES" style="edgeLabel;html=1;align=center;verticalAlign=middle;resizable=0;points=[];" vertex="1" connectable="0" parent="qS1Gej-VdCPAyixQhets-26">
          <mxGeometry x="-0.2781" y="2" relative="1" as="geometry">
            <mxPoint as="offset" />
          </mxGeometry>
        </mxCell>
        <mxCell id="qS1Gej-VdCPAyixQhets-147" style="edgeStyle=orthogonalEdgeStyle;rounded=0;orthogonalLoop=1;jettySize=auto;html=1;exitX=1;exitY=0.5;exitDx=0;exitDy=0;" edge="1" parent="1" source="qS1Gej-VdCPAyixQhets-12">
          <mxGeometry relative="1" as="geometry">
            <mxPoint x="170" y="620" as="targetPoint" />
          </mxGeometry>
        </mxCell>
        <mxCell id="qS1Gej-VdCPAyixQhets-148" value="NO" style="edgeLabel;html=1;align=center;verticalAlign=middle;resizable=0;points=[];" vertex="1" connectable="0" parent="qS1Gej-VdCPAyixQhets-147">
          <mxGeometry x="0.2856" y="2" relative="1" as="geometry">
            <mxPoint x="-12" y="-2" as="offset" />
          </mxGeometry>
        </mxCell>
        <mxCell id="qS1Gej-VdCPAyixQhets-12" value="&lt;font face=&quot;Times New Roman&quot; style=&quot;font-size: 15px;&quot;&gt;Check if Serial3 port&amp;nbsp;&lt;/font&gt;&lt;div style=&quot;font-size: 15px;&quot;&gt;&lt;font face=&quot;Times New Roman&quot; style=&quot;font-size: 15px;&quot;&gt;has data available&lt;/font&gt;&lt;/div&gt;" style="rhombus;whiteSpace=wrap;html=1;" vertex="1" parent="1">
          <mxGeometry x="77.5" y="640" width="185" height="100" as="geometry" />
        </mxCell>
        <mxCell id="qS1Gej-VdCPAyixQhets-29" style="edgeStyle=orthogonalEdgeStyle;rounded=0;orthogonalLoop=1;jettySize=auto;html=1;exitX=0.5;exitY=1;exitDx=0;exitDy=0;entryX=0.5;entryY=0;entryDx=0;entryDy=0;" edge="1" parent="1" source="qS1Gej-VdCPAyixQhets-24" target="qS1Gej-VdCPAyixQhets-28">
          <mxGeometry relative="1" as="geometry" />
        </mxCell>
        <mxCell id="qS1Gej-VdCPAyixQhets-24" value="&lt;font face=&quot;Times New Roman&quot;&gt;&lt;span style=&quot;font-size: 15px;&quot;&gt;Read servo position (pos)&lt;/span&gt;&lt;/font&gt;" style="rounded=0;whiteSpace=wrap;html=1;" vertex="1" parent="1">
          <mxGeometry x="110" y="845" width="120" height="50" as="geometry" />
        </mxCell>
        <mxCell id="qS1Gej-VdCPAyixQhets-27" style="edgeStyle=orthogonalEdgeStyle;rounded=0;orthogonalLoop=1;jettySize=auto;html=1;exitX=0.5;exitY=1;exitDx=0;exitDy=0;entryX=0.5;entryY=0;entryDx=0;entryDy=0;" edge="1" parent="1" source="qS1Gej-VdCPAyixQhets-25" target="qS1Gej-VdCPAyixQhets-24">
          <mxGeometry relative="1" as="geometry" />
        </mxCell>
        <mxCell id="qS1Gej-VdCPAyixQhets-25" value="&lt;font face=&quot;Times New Roman&quot;&gt;&lt;span style=&quot;font-size: 15px;&quot;&gt;Read character (char) at Serial3 Port&lt;/span&gt;&lt;/font&gt;" style="rounded=0;whiteSpace=wrap;html=1;" vertex="1" parent="1">
          <mxGeometry x="110" y="770" width="120" height="50" as="geometry" />
        </mxCell>
        <mxCell id="qS1Gej-VdCPAyixQhets-32" style="edgeStyle=orthogonalEdgeStyle;rounded=0;orthogonalLoop=1;jettySize=auto;html=1;exitX=1;exitY=0.5;exitDx=0;exitDy=0;entryX=0.5;entryY=0;entryDx=0;entryDy=0;" edge="1" parent="1" source="qS1Gej-VdCPAyixQhets-28" target="qS1Gej-VdCPAyixQhets-31">
          <mxGeometry relative="1" as="geometry" />
        </mxCell>
        <mxCell id="qS1Gej-VdCPAyixQhets-28" value="&lt;font face=&quot;Times New Roman&quot;&gt;&lt;span style=&quot;font-size: 15px;&quot;&gt;Print char, pos&lt;/span&gt;&lt;/font&gt;" style="shape=parallelogram;perimeter=parallelogramPerimeter;whiteSpace=wrap;html=1;fixedSize=1;" vertex="1" parent="1">
          <mxGeometry x="80" y="930" width="180" height="40" as="geometry" />
        </mxCell>
        <mxCell id="qS1Gej-VdCPAyixQhets-36" style="edgeStyle=orthogonalEdgeStyle;rounded=0;orthogonalLoop=1;jettySize=auto;html=1;exitX=1;exitY=0.5;exitDx=0;exitDy=0;entryX=0;entryY=0.5;entryDx=0;entryDy=0;" edge="1" parent="1" source="qS1Gej-VdCPAyixQhets-31" target="qS1Gej-VdCPAyixQhets-35">
          <mxGeometry relative="1" as="geometry" />
        </mxCell>
        <mxCell id="qS1Gej-VdCPAyixQhets-37" value="YES" style="edgeLabel;html=1;align=center;verticalAlign=middle;resizable=0;points=[];" vertex="1" connectable="0" parent="qS1Gej-VdCPAyixQhets-36">
          <mxGeometry x="-0.139" y="-1" relative="1" as="geometry">
            <mxPoint y="-1" as="offset" />
          </mxGeometry>
        </mxCell>
        <mxCell id="qS1Gej-VdCPAyixQhets-39" style="edgeStyle=orthogonalEdgeStyle;rounded=0;orthogonalLoop=1;jettySize=auto;html=1;exitX=0.5;exitY=1;exitDx=0;exitDy=0;entryX=0.5;entryY=0;entryDx=0;entryDy=0;" edge="1" parent="1" source="qS1Gej-VdCPAyixQhets-31" target="qS1Gej-VdCPAyixQhets-38">
          <mxGeometry relative="1" as="geometry" />
        </mxCell>
        <mxCell id="qS1Gej-VdCPAyixQhets-40" value="NO" style="edgeLabel;html=1;align=center;verticalAlign=middle;resizable=0;points=[];" vertex="1" connectable="0" parent="qS1Gej-VdCPAyixQhets-39">
          <mxGeometry x="-0.3843" y="-2" relative="1" as="geometry">
            <mxPoint x="2" as="offset" />
          </mxGeometry>
        </mxCell>
        <mxCell id="qS1Gej-VdCPAyixQhets-31" value="&lt;font face=&quot;Times New Roman&quot;&gt;&lt;span style=&quot;font-size: 15px;&quot;&gt;char == &#39;s&#39;&lt;/span&gt;&lt;/font&gt;" style="rhombus;whiteSpace=wrap;html=1;" vertex="1" parent="1">
          <mxGeometry x="360" y="120" width="140" height="50" as="geometry" />
        </mxCell>
        <mxCell id="qS1Gej-VdCPAyixQhets-35" value="&lt;font face=&quot;Times New Roman&quot;&gt;&lt;span style=&quot;font-size: 15px;&quot;&gt;Baseplate rotate clockwise&lt;/span&gt;&lt;/font&gt;" style="rounded=0;whiteSpace=wrap;html=1;" vertex="1" parent="1">
          <mxGeometry x="540" y="122.5" width="160" height="45" as="geometry" />
        </mxCell>
        <mxCell id="qS1Gej-VdCPAyixQhets-42" style="edgeStyle=orthogonalEdgeStyle;rounded=0;orthogonalLoop=1;jettySize=auto;html=1;exitX=1;exitY=0.5;exitDx=0;exitDy=0;entryX=0;entryY=0.5;entryDx=0;entryDy=0;" edge="1" parent="1" source="qS1Gej-VdCPAyixQhets-38" target="qS1Gej-VdCPAyixQhets-41">
          <mxGeometry relative="1" as="geometry" />
        </mxCell>
        <mxCell id="qS1Gej-VdCPAyixQhets-43" value="YES" style="edgeLabel;html=1;align=center;verticalAlign=middle;resizable=0;points=[];" vertex="1" connectable="0" parent="qS1Gej-VdCPAyixQhets-42">
          <mxGeometry x="-0.12" y="3" relative="1" as="geometry">
            <mxPoint y="3" as="offset" />
          </mxGeometry>
        </mxCell>
        <mxCell id="qS1Gej-VdCPAyixQhets-51" style="edgeStyle=orthogonalEdgeStyle;rounded=0;orthogonalLoop=1;jettySize=auto;html=1;exitX=0.5;exitY=1;exitDx=0;exitDy=0;entryX=0.5;entryY=0;entryDx=0;entryDy=0;" edge="1" parent="1" source="qS1Gej-VdCPAyixQhets-38" target="qS1Gej-VdCPAyixQhets-47">
          <mxGeometry relative="1" as="geometry" />
        </mxCell>
        <mxCell id="qS1Gej-VdCPAyixQhets-52" value="NO" style="edgeLabel;html=1;align=center;verticalAlign=middle;resizable=0;points=[];" vertex="1" connectable="0" parent="qS1Gej-VdCPAyixQhets-51">
          <mxGeometry x="-0.0914" y="-1" relative="1" as="geometry">
            <mxPoint x="1" y="-4" as="offset" />
          </mxGeometry>
        </mxCell>
        <mxCell id="qS1Gej-VdCPAyixQhets-38" value="&lt;font face=&quot;Times New Roman&quot;&gt;&lt;span style=&quot;font-size: 15px;&quot;&gt;char == &#39;n&#39;&lt;/span&gt;&lt;/font&gt;" style="rhombus;whiteSpace=wrap;html=1;" vertex="1" parent="1">
          <mxGeometry x="360" y="200" width="140" height="50" as="geometry" />
        </mxCell>
        <mxCell id="qS1Gej-VdCPAyixQhets-153" style="edgeStyle=orthogonalEdgeStyle;rounded=0;orthogonalLoop=1;jettySize=auto;html=1;exitX=1;exitY=0.5;exitDx=0;exitDy=0;" edge="1" parent="1" source="qS1Gej-VdCPAyixQhets-41">
          <mxGeometry relative="1" as="geometry">
            <mxPoint x="930" y="225" as="targetPoint" />
          </mxGeometry>
        </mxCell>
        <mxCell id="qS1Gej-VdCPAyixQhets-41" value="&lt;font face=&quot;Times New Roman&quot;&gt;&lt;span style=&quot;font-size: 15px;&quot;&gt;Baseplate rotate counter-clockwise&lt;/span&gt;&lt;/font&gt;" style="rounded=0;whiteSpace=wrap;html=1;" vertex="1" parent="1">
          <mxGeometry x="540" y="202.5" width="160" height="45" as="geometry" />
        </mxCell>
        <mxCell id="qS1Gej-VdCPAyixQhets-49" style="edgeStyle=orthogonalEdgeStyle;rounded=0;orthogonalLoop=1;jettySize=auto;html=1;exitX=1;exitY=0.5;exitDx=0;exitDy=0;entryX=0;entryY=0.5;entryDx=0;entryDy=0;" edge="1" parent="1" source="qS1Gej-VdCPAyixQhets-47" target="qS1Gej-VdCPAyixQhets-48">
          <mxGeometry relative="1" as="geometry" />
        </mxCell>
        <mxCell id="qS1Gej-VdCPAyixQhets-50" value="YES" style="edgeLabel;html=1;align=center;verticalAlign=middle;resizable=0;points=[];" vertex="1" connectable="0" parent="qS1Gej-VdCPAyixQhets-49">
          <mxGeometry x="-0.4167" y="3" relative="1" as="geometry">
            <mxPoint x="8" y="3" as="offset" />
          </mxGeometry>
        </mxCell>
        <mxCell id="qS1Gej-VdCPAyixQhets-55" style="edgeStyle=orthogonalEdgeStyle;rounded=0;orthogonalLoop=1;jettySize=auto;html=1;exitX=0.5;exitY=1;exitDx=0;exitDy=0;entryX=0.5;entryY=0;entryDx=0;entryDy=0;" edge="1" parent="1" source="qS1Gej-VdCPAyixQhets-47" target="qS1Gej-VdCPAyixQhets-53">
          <mxGeometry relative="1" as="geometry" />
        </mxCell>
        <mxCell id="qS1Gej-VdCPAyixQhets-57" value="NO" style="edgeLabel;html=1;align=center;verticalAlign=middle;resizable=0;points=[];" vertex="1" connectable="0" parent="qS1Gej-VdCPAyixQhets-55">
          <mxGeometry x="-0.3657" y="-1" relative="1" as="geometry">
            <mxPoint as="offset" />
          </mxGeometry>
        </mxCell>
        <mxCell id="qS1Gej-VdCPAyixQhets-47" value="&lt;font face=&quot;Times New Roman&quot;&gt;&lt;span style=&quot;font-size: 15px;&quot;&gt;char == &#39;i&#39;&lt;/span&gt;&lt;/font&gt;" style="rhombus;whiteSpace=wrap;html=1;" vertex="1" parent="1">
          <mxGeometry x="360" y="280" width="140" height="50" as="geometry" />
        </mxCell>
        <mxCell id="qS1Gej-VdCPAyixQhets-154" style="edgeStyle=orthogonalEdgeStyle;rounded=0;orthogonalLoop=1;jettySize=auto;html=1;exitX=1;exitY=0.5;exitDx=0;exitDy=0;" edge="1" parent="1" source="qS1Gej-VdCPAyixQhets-48">
          <mxGeometry relative="1" as="geometry">
            <mxPoint x="930" y="305" as="targetPoint" />
          </mxGeometry>
        </mxCell>
        <mxCell id="qS1Gej-VdCPAyixQhets-48" value="&lt;font face=&quot;Times New Roman&quot;&gt;&lt;span style=&quot;font-size: 15px;&quot;&gt;Gripper horizontally move inward&lt;/span&gt;&lt;/font&gt;" style="rounded=0;whiteSpace=wrap;html=1;" vertex="1" parent="1">
          <mxGeometry x="540" y="282.5" width="160" height="45" as="geometry" />
        </mxCell>
        <mxCell id="qS1Gej-VdCPAyixQhets-56" style="edgeStyle=orthogonalEdgeStyle;rounded=0;orthogonalLoop=1;jettySize=auto;html=1;exitX=1;exitY=0.5;exitDx=0;exitDy=0;entryX=0;entryY=0.5;entryDx=0;entryDy=0;" edge="1" parent="1" source="qS1Gej-VdCPAyixQhets-53" target="qS1Gej-VdCPAyixQhets-54">
          <mxGeometry relative="1" as="geometry" />
        </mxCell>
        <mxCell id="qS1Gej-VdCPAyixQhets-58" value="YES" style="edgeLabel;html=1;align=center;verticalAlign=middle;resizable=0;points=[];" vertex="1" connectable="0" parent="qS1Gej-VdCPAyixQhets-56">
          <mxGeometry y="-2" relative="1" as="geometry">
            <mxPoint y="-2" as="offset" />
          </mxGeometry>
        </mxCell>
        <mxCell id="qS1Gej-VdCPAyixQhets-67" style="edgeStyle=orthogonalEdgeStyle;rounded=0;orthogonalLoop=1;jettySize=auto;html=1;exitX=0.5;exitY=1;exitDx=0;exitDy=0;entryX=0.5;entryY=0;entryDx=0;entryDy=0;" edge="1" parent="1" source="qS1Gej-VdCPAyixQhets-53" target="qS1Gej-VdCPAyixQhets-65">
          <mxGeometry relative="1" as="geometry" />
        </mxCell>
        <mxCell id="qS1Gej-VdCPAyixQhets-68" value="NO" style="edgeLabel;html=1;align=center;verticalAlign=middle;resizable=0;points=[];" vertex="1" connectable="0" parent="qS1Gej-VdCPAyixQhets-67">
          <mxGeometry x="-0.4571" y="-1" relative="1" as="geometry">
            <mxPoint as="offset" />
          </mxGeometry>
        </mxCell>
        <mxCell id="qS1Gej-VdCPAyixQhets-53" value="&lt;font face=&quot;Times New Roman&quot;&gt;&lt;span style=&quot;font-size: 15px;&quot;&gt;char == &#39;i&#39;&lt;/span&gt;&lt;/font&gt;" style="rhombus;whiteSpace=wrap;html=1;" vertex="1" parent="1">
          <mxGeometry x="360" y="360" width="140" height="50" as="geometry" />
        </mxCell>
        <mxCell id="qS1Gej-VdCPAyixQhets-155" style="edgeStyle=orthogonalEdgeStyle;rounded=0;orthogonalLoop=1;jettySize=auto;html=1;exitX=1;exitY=0.5;exitDx=0;exitDy=0;" edge="1" parent="1" source="qS1Gej-VdCPAyixQhets-54">
          <mxGeometry relative="1" as="geometry">
            <mxPoint x="930" y="385" as="targetPoint" />
          </mxGeometry>
        </mxCell>
        <mxCell id="qS1Gej-VdCPAyixQhets-54" value="&lt;font face=&quot;Times New Roman&quot;&gt;&lt;span style=&quot;font-size: 15px;&quot;&gt;Gripper horizontally move outward&lt;/span&gt;&lt;/font&gt;" style="rounded=0;whiteSpace=wrap;html=1;" vertex="1" parent="1">
          <mxGeometry x="540" y="362.5" width="160" height="45" as="geometry" />
        </mxCell>
        <mxCell id="qS1Gej-VdCPAyixQhets-63" style="edgeStyle=orthogonalEdgeStyle;rounded=0;orthogonalLoop=1;jettySize=auto;html=1;exitX=1;exitY=0.5;exitDx=0;exitDy=0;entryX=0;entryY=0.5;entryDx=0;entryDy=0;" edge="1" parent="1" source="qS1Gej-VdCPAyixQhets-65" target="qS1Gej-VdCPAyixQhets-66">
          <mxGeometry relative="1" as="geometry" />
        </mxCell>
        <mxCell id="qS1Gej-VdCPAyixQhets-64" value="YES" style="edgeLabel;html=1;align=center;verticalAlign=middle;resizable=0;points=[];" vertex="1" connectable="0" parent="qS1Gej-VdCPAyixQhets-63">
          <mxGeometry y="-2" relative="1" as="geometry">
            <mxPoint y="-2" as="offset" />
          </mxGeometry>
        </mxCell>
        <mxCell id="qS1Gej-VdCPAyixQhets-73" style="edgeStyle=orthogonalEdgeStyle;rounded=0;orthogonalLoop=1;jettySize=auto;html=1;exitX=0.5;exitY=1;exitDx=0;exitDy=0;entryX=0.5;entryY=0;entryDx=0;entryDy=0;" edge="1" parent="1" source="qS1Gej-VdCPAyixQhets-65" target="qS1Gej-VdCPAyixQhets-71">
          <mxGeometry relative="1" as="geometry" />
        </mxCell>
        <mxCell id="qS1Gej-VdCPAyixQhets-74" value="NO" style="edgeLabel;html=1;align=center;verticalAlign=middle;resizable=0;points=[];" vertex="1" connectable="0" parent="qS1Gej-VdCPAyixQhets-73">
          <mxGeometry x="-0.1448" y="1" relative="1" as="geometry">
            <mxPoint x="-1" y="-3" as="offset" />
          </mxGeometry>
        </mxCell>
        <mxCell id="qS1Gej-VdCPAyixQhets-65" value="&lt;font face=&quot;Times New Roman&quot;&gt;&lt;span style=&quot;font-size: 15px;&quot;&gt;char == &#39;o&#39;&lt;/span&gt;&lt;/font&gt;" style="rhombus;whiteSpace=wrap;html=1;" vertex="1" parent="1">
          <mxGeometry x="360" y="440" width="140" height="50" as="geometry" />
        </mxCell>
        <mxCell id="qS1Gej-VdCPAyixQhets-156" style="edgeStyle=orthogonalEdgeStyle;rounded=0;orthogonalLoop=1;jettySize=auto;html=1;exitX=1;exitY=0.5;exitDx=0;exitDy=0;" edge="1" parent="1" source="qS1Gej-VdCPAyixQhets-66">
          <mxGeometry relative="1" as="geometry">
            <mxPoint x="930" y="465" as="targetPoint" />
          </mxGeometry>
        </mxCell>
        <mxCell id="qS1Gej-VdCPAyixQhets-66" value="&lt;font face=&quot;Times New Roman&quot;&gt;&lt;span style=&quot;font-size: 15px;&quot;&gt;Gripper horizontally move inward&lt;/span&gt;&lt;/font&gt;" style="rounded=0;whiteSpace=wrap;html=1;" vertex="1" parent="1">
          <mxGeometry x="540" y="442.5" width="160" height="45" as="geometry" />
        </mxCell>
        <mxCell id="qS1Gej-VdCPAyixQhets-69" style="edgeStyle=orthogonalEdgeStyle;rounded=0;orthogonalLoop=1;jettySize=auto;html=1;exitX=1;exitY=0.5;exitDx=0;exitDy=0;entryX=0;entryY=0.5;entryDx=0;entryDy=0;" edge="1" parent="1" source="qS1Gej-VdCPAyixQhets-71" target="qS1Gej-VdCPAyixQhets-72">
          <mxGeometry relative="1" as="geometry" />
        </mxCell>
        <mxCell id="qS1Gej-VdCPAyixQhets-70" value="YES" style="edgeLabel;html=1;align=center;verticalAlign=middle;resizable=0;points=[];" vertex="1" connectable="0" parent="qS1Gej-VdCPAyixQhets-69">
          <mxGeometry y="-2" relative="1" as="geometry">
            <mxPoint y="-2" as="offset" />
          </mxGeometry>
        </mxCell>
        <mxCell id="qS1Gej-VdCPAyixQhets-79" style="edgeStyle=orthogonalEdgeStyle;rounded=0;orthogonalLoop=1;jettySize=auto;html=1;exitX=0.5;exitY=1;exitDx=0;exitDy=0;entryX=0.5;entryY=0;entryDx=0;entryDy=0;" edge="1" parent="1" source="qS1Gej-VdCPAyixQhets-71" target="qS1Gej-VdCPAyixQhets-77">
          <mxGeometry relative="1" as="geometry" />
        </mxCell>
        <mxCell id="qS1Gej-VdCPAyixQhets-80" value="NO" style="edgeLabel;html=1;align=center;verticalAlign=middle;resizable=0;points=[];" vertex="1" connectable="0" parent="qS1Gej-VdCPAyixQhets-79">
          <mxGeometry x="-0.3962" y="-1" relative="1" as="geometry">
            <mxPoint as="offset" />
          </mxGeometry>
        </mxCell>
        <mxCell id="qS1Gej-VdCPAyixQhets-71" value="&lt;font face=&quot;Times New Roman&quot;&gt;&lt;span style=&quot;font-size: 15px;&quot;&gt;char == &#39;u&#39;&lt;/span&gt;&lt;/font&gt;" style="rhombus;whiteSpace=wrap;html=1;" vertex="1" parent="1">
          <mxGeometry x="360" y="520" width="140" height="50" as="geometry" />
        </mxCell>
        <mxCell id="qS1Gej-VdCPAyixQhets-157" style="edgeStyle=orthogonalEdgeStyle;rounded=0;orthogonalLoop=1;jettySize=auto;html=1;exitX=1;exitY=0.5;exitDx=0;exitDy=0;" edge="1" parent="1" source="qS1Gej-VdCPAyixQhets-72">
          <mxGeometry relative="1" as="geometry">
            <mxPoint x="930" y="545" as="targetPoint" />
          </mxGeometry>
        </mxCell>
        <mxCell id="qS1Gej-VdCPAyixQhets-72" value="&lt;font face=&quot;Times New Roman&quot;&gt;&lt;span style=&quot;font-size: 15px;&quot;&gt;Gripper vertically move upward&lt;/span&gt;&lt;/font&gt;" style="rounded=0;whiteSpace=wrap;html=1;" vertex="1" parent="1">
          <mxGeometry x="540" y="522.5" width="160" height="45" as="geometry" />
        </mxCell>
        <mxCell id="qS1Gej-VdCPAyixQhets-75" style="edgeStyle=orthogonalEdgeStyle;rounded=0;orthogonalLoop=1;jettySize=auto;html=1;exitX=1;exitY=0.5;exitDx=0;exitDy=0;entryX=0;entryY=0.5;entryDx=0;entryDy=0;" edge="1" parent="1" source="qS1Gej-VdCPAyixQhets-77" target="qS1Gej-VdCPAyixQhets-78">
          <mxGeometry relative="1" as="geometry" />
        </mxCell>
        <mxCell id="qS1Gej-VdCPAyixQhets-76" value="YES" style="edgeLabel;html=1;align=center;verticalAlign=middle;resizable=0;points=[];" vertex="1" connectable="0" parent="qS1Gej-VdCPAyixQhets-75">
          <mxGeometry y="-2" relative="1" as="geometry">
            <mxPoint y="-2" as="offset" />
          </mxGeometry>
        </mxCell>
        <mxCell id="qS1Gej-VdCPAyixQhets-85" style="edgeStyle=orthogonalEdgeStyle;rounded=0;orthogonalLoop=1;jettySize=auto;html=1;exitX=0.5;exitY=1;exitDx=0;exitDy=0;entryX=0.5;entryY=0;entryDx=0;entryDy=0;" edge="1" parent="1" source="qS1Gej-VdCPAyixQhets-77" target="qS1Gej-VdCPAyixQhets-83">
          <mxGeometry relative="1" as="geometry" />
        </mxCell>
        <mxCell id="qS1Gej-VdCPAyixQhets-86" value="NO" style="edgeLabel;html=1;align=center;verticalAlign=middle;resizable=0;points=[];" vertex="1" connectable="0" parent="qS1Gej-VdCPAyixQhets-85">
          <mxGeometry x="-0.4621" relative="1" as="geometry">
            <mxPoint as="offset" />
          </mxGeometry>
        </mxCell>
        <mxCell id="qS1Gej-VdCPAyixQhets-77" value="&lt;font face=&quot;Times New Roman&quot;&gt;&lt;span style=&quot;font-size: 15px;&quot;&gt;char == &#39;u&#39;&lt;/span&gt;&lt;/font&gt;" style="rhombus;whiteSpace=wrap;html=1;" vertex="1" parent="1">
          <mxGeometry x="360" y="600" width="140" height="50" as="geometry" />
        </mxCell>
        <mxCell id="qS1Gej-VdCPAyixQhets-158" style="edgeStyle=orthogonalEdgeStyle;rounded=0;orthogonalLoop=1;jettySize=auto;html=1;exitX=1;exitY=0.5;exitDx=0;exitDy=0;" edge="1" parent="1" source="qS1Gej-VdCPAyixQhets-78">
          <mxGeometry relative="1" as="geometry">
            <mxPoint x="930" y="625" as="targetPoint" />
          </mxGeometry>
        </mxCell>
        <mxCell id="qS1Gej-VdCPAyixQhets-78" value="&lt;font face=&quot;Times New Roman&quot;&gt;&lt;span style=&quot;font-size: 15px;&quot;&gt;Gripper vertically move downward&lt;/span&gt;&lt;/font&gt;" style="rounded=0;whiteSpace=wrap;html=1;" vertex="1" parent="1">
          <mxGeometry x="540" y="602.5" width="160" height="45" as="geometry" />
        </mxCell>
        <mxCell id="qS1Gej-VdCPAyixQhets-81" style="edgeStyle=orthogonalEdgeStyle;rounded=0;orthogonalLoop=1;jettySize=auto;html=1;exitX=1;exitY=0.5;exitDx=0;exitDy=0;entryX=0;entryY=0.5;entryDx=0;entryDy=0;" edge="1" parent="1" source="qS1Gej-VdCPAyixQhets-83" target="qS1Gej-VdCPAyixQhets-84">
          <mxGeometry relative="1" as="geometry" />
        </mxCell>
        <mxCell id="qS1Gej-VdCPAyixQhets-82" value="YES" style="edgeLabel;html=1;align=center;verticalAlign=middle;resizable=0;points=[];" vertex="1" connectable="0" parent="qS1Gej-VdCPAyixQhets-81">
          <mxGeometry y="-2" relative="1" as="geometry">
            <mxPoint y="-2" as="offset" />
          </mxGeometry>
        </mxCell>
        <mxCell id="qS1Gej-VdCPAyixQhets-95" style="edgeStyle=orthogonalEdgeStyle;rounded=0;orthogonalLoop=1;jettySize=auto;html=1;exitX=0.5;exitY=1;exitDx=0;exitDy=0;entryX=0.5;entryY=0;entryDx=0;entryDy=0;" edge="1" parent="1" source="qS1Gej-VdCPAyixQhets-83" target="qS1Gej-VdCPAyixQhets-89">
          <mxGeometry relative="1" as="geometry" />
        </mxCell>
        <mxCell id="qS1Gej-VdCPAyixQhets-97" value="NO" style="edgeLabel;html=1;align=center;verticalAlign=middle;resizable=0;points=[];" vertex="1" connectable="0" parent="qS1Gej-VdCPAyixQhets-95">
          <mxGeometry x="-0.4437" relative="1" as="geometry">
            <mxPoint as="offset" />
          </mxGeometry>
        </mxCell>
        <mxCell id="qS1Gej-VdCPAyixQhets-83" value="&lt;font face=&quot;Times New Roman&quot;&gt;&lt;span style=&quot;font-size: 15px;&quot;&gt;char == &#39;b&#39;&lt;/span&gt;&lt;/font&gt;" style="rhombus;whiteSpace=wrap;html=1;" vertex="1" parent="1">
          <mxGeometry x="360" y="680" width="140" height="50" as="geometry" />
        </mxCell>
        <mxCell id="qS1Gej-VdCPAyixQhets-159" style="edgeStyle=orthogonalEdgeStyle;rounded=0;orthogonalLoop=1;jettySize=auto;html=1;exitX=1;exitY=0.5;exitDx=0;exitDy=0;" edge="1" parent="1" source="qS1Gej-VdCPAyixQhets-84">
          <mxGeometry relative="1" as="geometry">
            <mxPoint x="930" y="705" as="targetPoint" />
          </mxGeometry>
        </mxCell>
        <mxCell id="qS1Gej-VdCPAyixQhets-84" value="&lt;font face=&quot;Times New Roman&quot;&gt;&lt;span style=&quot;font-size: 15px;&quot;&gt;Open air pump&lt;/span&gt;&lt;/font&gt;" style="rounded=0;whiteSpace=wrap;html=1;" vertex="1" parent="1">
          <mxGeometry x="540" y="682.5" width="160" height="45" as="geometry" />
        </mxCell>
        <mxCell id="qS1Gej-VdCPAyixQhets-87" style="edgeStyle=orthogonalEdgeStyle;rounded=0;orthogonalLoop=1;jettySize=auto;html=1;exitX=1;exitY=0.5;exitDx=0;exitDy=0;entryX=0;entryY=0.5;entryDx=0;entryDy=0;" edge="1" parent="1" source="qS1Gej-VdCPAyixQhets-89" target="qS1Gej-VdCPAyixQhets-90">
          <mxGeometry relative="1" as="geometry" />
        </mxCell>
        <mxCell id="qS1Gej-VdCPAyixQhets-88" value="YES" style="edgeLabel;html=1;align=center;verticalAlign=middle;resizable=0;points=[];" vertex="1" connectable="0" parent="qS1Gej-VdCPAyixQhets-87">
          <mxGeometry y="-2" relative="1" as="geometry">
            <mxPoint y="-2" as="offset" />
          </mxGeometry>
        </mxCell>
        <mxCell id="qS1Gej-VdCPAyixQhets-96" style="edgeStyle=orthogonalEdgeStyle;rounded=0;orthogonalLoop=1;jettySize=auto;html=1;exitX=0.5;exitY=1;exitDx=0;exitDy=0;entryX=0.5;entryY=0;entryDx=0;entryDy=0;" edge="1" parent="1" source="qS1Gej-VdCPAyixQhets-89" target="qS1Gej-VdCPAyixQhets-93">
          <mxGeometry relative="1" as="geometry" />
        </mxCell>
        <mxCell id="qS1Gej-VdCPAyixQhets-98" value="NO" style="edgeLabel;html=1;align=center;verticalAlign=middle;resizable=0;points=[];" vertex="1" connectable="0" parent="qS1Gej-VdCPAyixQhets-96">
          <mxGeometry x="-0.3977" y="1" relative="1" as="geometry">
            <mxPoint x="-1" as="offset" />
          </mxGeometry>
        </mxCell>
        <mxCell id="qS1Gej-VdCPAyixQhets-89" value="&lt;font face=&quot;Times New Roman&quot;&gt;&lt;span style=&quot;font-size: 15px;&quot;&gt;char == &#39;c&#39;&lt;/span&gt;&lt;/font&gt;" style="rhombus;whiteSpace=wrap;html=1;" vertex="1" parent="1">
          <mxGeometry x="360" y="760" width="140" height="50" as="geometry" />
        </mxCell>
        <mxCell id="qS1Gej-VdCPAyixQhets-160" style="edgeStyle=orthogonalEdgeStyle;rounded=0;orthogonalLoop=1;jettySize=auto;html=1;exitX=1;exitY=0.5;exitDx=0;exitDy=0;" edge="1" parent="1" source="qS1Gej-VdCPAyixQhets-90">
          <mxGeometry relative="1" as="geometry">
            <mxPoint x="930" y="785" as="targetPoint" />
          </mxGeometry>
        </mxCell>
        <mxCell id="qS1Gej-VdCPAyixQhets-90" value="&lt;font face=&quot;Times New Roman&quot;&gt;&lt;span style=&quot;font-size: 15px;&quot;&gt;Close air pump&lt;/span&gt;&lt;/font&gt;" style="rounded=0;whiteSpace=wrap;html=1;" vertex="1" parent="1">
          <mxGeometry x="540" y="762.5" width="160" height="45" as="geometry" />
        </mxCell>
        <mxCell id="qS1Gej-VdCPAyixQhets-91" style="edgeStyle=orthogonalEdgeStyle;rounded=0;orthogonalLoop=1;jettySize=auto;html=1;exitX=1;exitY=0.5;exitDx=0;exitDy=0;entryX=0;entryY=0.5;entryDx=0;entryDy=0;" edge="1" parent="1" source="qS1Gej-VdCPAyixQhets-93" target="qS1Gej-VdCPAyixQhets-94">
          <mxGeometry relative="1" as="geometry" />
        </mxCell>
        <mxCell id="qS1Gej-VdCPAyixQhets-92" value="YES" style="edgeLabel;html=1;align=center;verticalAlign=middle;resizable=0;points=[];" vertex="1" connectable="0" parent="qS1Gej-VdCPAyixQhets-91">
          <mxGeometry y="-2" relative="1" as="geometry">
            <mxPoint y="-2" as="offset" />
          </mxGeometry>
        </mxCell>
        <mxCell id="qS1Gej-VdCPAyixQhets-110" style="edgeStyle=orthogonalEdgeStyle;rounded=0;orthogonalLoop=1;jettySize=auto;html=1;exitX=0.5;exitY=1;exitDx=0;exitDy=0;entryX=0.5;entryY=0;entryDx=0;entryDy=0;" edge="1" parent="1" source="qS1Gej-VdCPAyixQhets-93" target="qS1Gej-VdCPAyixQhets-101">
          <mxGeometry relative="1" as="geometry" />
        </mxCell>
        <mxCell id="qS1Gej-VdCPAyixQhets-111" value="NO" style="edgeLabel;html=1;align=center;verticalAlign=middle;resizable=0;points=[];" vertex="1" connectable="0" parent="qS1Gej-VdCPAyixQhets-110">
          <mxGeometry x="-0.3977" y="1" relative="1" as="geometry">
            <mxPoint as="offset" />
          </mxGeometry>
        </mxCell>
        <mxCell id="qS1Gej-VdCPAyixQhets-93" value="&lt;font face=&quot;Times New Roman&quot;&gt;&lt;span style=&quot;font-size: 15px;&quot;&gt;char == &#39;a&#39;&lt;/span&gt;&lt;/font&gt;" style="rhombus;whiteSpace=wrap;html=1;" vertex="1" parent="1">
          <mxGeometry x="360" y="840" width="140" height="50" as="geometry" />
        </mxCell>
        <mxCell id="qS1Gej-VdCPAyixQhets-161" style="edgeStyle=orthogonalEdgeStyle;rounded=0;orthogonalLoop=1;jettySize=auto;html=1;exitX=1;exitY=0.5;exitDx=0;exitDy=0;" edge="1" parent="1" source="qS1Gej-VdCPAyixQhets-94">
          <mxGeometry relative="1" as="geometry">
            <mxPoint x="930" y="865" as="targetPoint" />
          </mxGeometry>
        </mxCell>
        <mxCell id="qS1Gej-VdCPAyixQhets-94" value="&lt;font face=&quot;Times New Roman&quot;&gt;&lt;span style=&quot;font-size: 15px;&quot;&gt;Turn on relay&lt;/span&gt;&lt;/font&gt;" style="rounded=0;whiteSpace=wrap;html=1;" vertex="1" parent="1">
          <mxGeometry x="540" y="842.5" width="160" height="45" as="geometry" />
        </mxCell>
        <mxCell id="qS1Gej-VdCPAyixQhets-99" style="edgeStyle=orthogonalEdgeStyle;rounded=0;orthogonalLoop=1;jettySize=auto;html=1;exitX=1;exitY=0.5;exitDx=0;exitDy=0;entryX=0;entryY=0.5;entryDx=0;entryDy=0;" edge="1" parent="1" source="qS1Gej-VdCPAyixQhets-101">
          <mxGeometry relative="1" as="geometry">
            <mxPoint x="540" y="945" as="targetPoint" />
          </mxGeometry>
        </mxCell>
        <mxCell id="qS1Gej-VdCPAyixQhets-100" value="YES" style="edgeLabel;html=1;align=center;verticalAlign=middle;resizable=0;points=[];" vertex="1" connectable="0" parent="qS1Gej-VdCPAyixQhets-99">
          <mxGeometry y="-2" relative="1" as="geometry">
            <mxPoint y="-2" as="offset" />
          </mxGeometry>
        </mxCell>
        <mxCell id="qS1Gej-VdCPAyixQhets-119" style="edgeStyle=orthogonalEdgeStyle;rounded=0;orthogonalLoop=1;jettySize=auto;html=1;exitX=0.5;exitY=1;exitDx=0;exitDy=0;entryX=0.5;entryY=0;entryDx=0;entryDy=0;" edge="1" parent="1" source="qS1Gej-VdCPAyixQhets-101" target="qS1Gej-VdCPAyixQhets-118">
          <mxGeometry relative="1" as="geometry" />
        </mxCell>
        <mxCell id="qS1Gej-VdCPAyixQhets-124" value="NO" style="edgeLabel;html=1;align=center;verticalAlign=middle;resizable=0;points=[];" vertex="1" connectable="0" parent="qS1Gej-VdCPAyixQhets-119">
          <mxGeometry x="-0.3954" y="-1" relative="1" as="geometry">
            <mxPoint as="offset" />
          </mxGeometry>
        </mxCell>
        <mxCell id="qS1Gej-VdCPAyixQhets-101" value="&lt;font face=&quot;Times New Roman&quot;&gt;&lt;span style=&quot;font-size: 15px;&quot;&gt;char == &#39;l&#39;&lt;/span&gt;&lt;/font&gt;" style="rhombus;whiteSpace=wrap;html=1;" vertex="1" parent="1">
          <mxGeometry x="360" y="920" width="140" height="50" as="geometry" />
        </mxCell>
        <mxCell id="qS1Gej-VdCPAyixQhets-106" style="edgeStyle=orthogonalEdgeStyle;rounded=0;orthogonalLoop=1;jettySize=auto;html=1;exitX=0.5;exitY=1;exitDx=0;exitDy=0;entryX=0.5;entryY=0;entryDx=0;entryDy=0;" edge="1" parent="1" source="qS1Gej-VdCPAyixQhets-103" target="qS1Gej-VdCPAyixQhets-105">
          <mxGeometry relative="1" as="geometry" />
        </mxCell>
        <mxCell id="qS1Gej-VdCPAyixQhets-103" value="&lt;font face=&quot;Times New Roman&quot;&gt;&lt;span style=&quot;font-size: 15px;&quot;&gt;Initialize Servo position&lt;/span&gt;&lt;/font&gt;" style="rounded=0;whiteSpace=wrap;html=1;" vertex="1" parent="1">
          <mxGeometry x="84.97" y="282.5" width="170.06" height="60" as="geometry" />
        </mxCell>
        <mxCell id="qS1Gej-VdCPAyixQhets-108" style="edgeStyle=orthogonalEdgeStyle;rounded=0;orthogonalLoop=1;jettySize=auto;html=1;exitX=0.5;exitY=1;exitDx=0;exitDy=0;entryX=0.5;entryY=0;entryDx=0;entryDy=0;" edge="1" parent="1" source="qS1Gej-VdCPAyixQhets-105" target="qS1Gej-VdCPAyixQhets-107">
          <mxGeometry relative="1" as="geometry" />
        </mxCell>
        <mxCell id="qS1Gej-VdCPAyixQhets-105" value="&lt;font face=&quot;Times New Roman&quot;&gt;&lt;span style=&quot;font-size: 15px;&quot;&gt;Set DC motors and relay pins to OUTPUT&lt;/span&gt;&lt;/font&gt;" style="rounded=0;whiteSpace=wrap;html=1;" vertex="1" parent="1">
          <mxGeometry x="84.91" y="370" width="170.06" height="60" as="geometry" />
        </mxCell>
        <mxCell id="qS1Gej-VdCPAyixQhets-109" style="edgeStyle=orthogonalEdgeStyle;rounded=0;orthogonalLoop=1;jettySize=auto;html=1;exitX=0.5;exitY=1;exitDx=0;exitDy=0;entryX=0.5;entryY=0;entryDx=0;entryDy=0;" edge="1" parent="1" source="qS1Gej-VdCPAyixQhets-107" target="qS1Gej-VdCPAyixQhets-10">
          <mxGeometry relative="1" as="geometry" />
        </mxCell>
        <mxCell id="qS1Gej-VdCPAyixQhets-107" value="&lt;font face=&quot;Times New Roman&quot;&gt;&lt;span style=&quot;font-size: 15px;&quot;&gt;Write LOW to all these digital Pins&lt;/span&gt;&lt;/font&gt;" style="rounded=0;whiteSpace=wrap;html=1;" vertex="1" parent="1">
          <mxGeometry x="84.97" y="460" width="170.06" height="60" as="geometry" />
        </mxCell>
        <mxCell id="qS1Gej-VdCPAyixQhets-116" style="edgeStyle=orthogonalEdgeStyle;rounded=0;orthogonalLoop=1;jettySize=auto;html=1;exitX=1;exitY=0.5;exitDx=0;exitDy=0;entryX=0;entryY=0.5;entryDx=0;entryDy=0;" edge="1" parent="1" source="qS1Gej-VdCPAyixQhets-113" target="qS1Gej-VdCPAyixQhets-115">
          <mxGeometry relative="1" as="geometry" />
        </mxCell>
        <mxCell id="qS1Gej-VdCPAyixQhets-117" value="YES" style="edgeLabel;html=1;align=center;verticalAlign=middle;resizable=0;points=[];" vertex="1" connectable="0" parent="qS1Gej-VdCPAyixQhets-116">
          <mxGeometry x="-0.1908" y="2" relative="1" as="geometry">
            <mxPoint y="2" as="offset" />
          </mxGeometry>
        </mxCell>
        <mxCell id="qS1Gej-VdCPAyixQhets-122" style="edgeStyle=orthogonalEdgeStyle;rounded=0;orthogonalLoop=1;jettySize=auto;html=1;exitX=0.5;exitY=1;exitDx=0;exitDy=0;entryX=0.5;entryY=0;entryDx=0;entryDy=0;" edge="1" parent="1" source="qS1Gej-VdCPAyixQhets-113" target="qS1Gej-VdCPAyixQhets-118">
          <mxGeometry relative="1" as="geometry" />
        </mxCell>
        <mxCell id="qS1Gej-VdCPAyixQhets-123" value="NO" style="edgeLabel;html=1;align=center;verticalAlign=middle;resizable=0;points=[];" vertex="1" connectable="0" parent="qS1Gej-VdCPAyixQhets-122">
          <mxGeometry x="0.0668" y="1" relative="1" as="geometry">
            <mxPoint as="offset" />
          </mxGeometry>
        </mxCell>
        <mxCell id="qS1Gej-VdCPAyixQhets-113" value="&lt;font face=&quot;Times New Roman&quot;&gt;&lt;span style=&quot;font-size: 15px;&quot;&gt;pos &amp;lt; max servo position&lt;/span&gt;&lt;/font&gt;" style="rhombus;whiteSpace=wrap;html=1;" vertex="1" parent="1">
          <mxGeometry x="540" y="910" width="140" height="70" as="geometry" />
        </mxCell>
        <mxCell id="qS1Gej-VdCPAyixQhets-162" style="edgeStyle=orthogonalEdgeStyle;rounded=0;orthogonalLoop=1;jettySize=auto;html=1;exitX=1;exitY=0.5;exitDx=0;exitDy=0;" edge="1" parent="1" source="qS1Gej-VdCPAyixQhets-115">
          <mxGeometry relative="1" as="geometry">
            <mxPoint x="930" y="945" as="targetPoint" />
          </mxGeometry>
        </mxCell>
        <mxCell id="qS1Gej-VdCPAyixQhets-115" value="&lt;font face=&quot;Times New Roman&quot; style=&quot;font-size: 15px;&quot;&gt;Gripper servo rotate clockwise&lt;/font&gt;" style="rounded=0;whiteSpace=wrap;html=1;" vertex="1" parent="1">
          <mxGeometry x="720" y="922.5" width="160" height="45" as="geometry" />
        </mxCell>
        <mxCell id="qS1Gej-VdCPAyixQhets-127" value="" style="edgeStyle=orthogonalEdgeStyle;rounded=0;orthogonalLoop=1;jettySize=auto;html=1;" edge="1" parent="1" source="qS1Gej-VdCPAyixQhets-118" target="qS1Gej-VdCPAyixQhets-126">
          <mxGeometry relative="1" as="geometry" />
        </mxCell>
        <mxCell id="qS1Gej-VdCPAyixQhets-128" value="YES" style="edgeLabel;html=1;align=center;verticalAlign=middle;resizable=0;points=[];" vertex="1" connectable="0" parent="qS1Gej-VdCPAyixQhets-127">
          <mxGeometry x="-0.0828" y="1" relative="1" as="geometry">
            <mxPoint as="offset" />
          </mxGeometry>
        </mxCell>
        <mxCell id="qS1Gej-VdCPAyixQhets-144" style="edgeStyle=orthogonalEdgeStyle;rounded=0;orthogonalLoop=1;jettySize=auto;html=1;exitX=0.5;exitY=1;exitDx=0;exitDy=0;entryX=0.5;entryY=0;entryDx=0;entryDy=0;" edge="1" parent="1" source="qS1Gej-VdCPAyixQhets-118" target="qS1Gej-VdCPAyixQhets-141">
          <mxGeometry relative="1" as="geometry" />
        </mxCell>
        <mxCell id="qS1Gej-VdCPAyixQhets-145" value="NO" style="edgeLabel;html=1;align=center;verticalAlign=middle;resizable=0;points=[];" vertex="1" connectable="0" parent="qS1Gej-VdCPAyixQhets-144">
          <mxGeometry x="-0.2067" y="3" relative="1" as="geometry">
            <mxPoint x="-3" y="-4" as="offset" />
          </mxGeometry>
        </mxCell>
        <mxCell id="qS1Gej-VdCPAyixQhets-118" value="&lt;font face=&quot;Times New Roman&quot;&gt;&lt;span style=&quot;font-size: 15px;&quot;&gt;char == &#39;r&#39;&lt;/span&gt;&lt;/font&gt;" style="rhombus;whiteSpace=wrap;html=1;" vertex="1" parent="1">
          <mxGeometry x="360" y="1020" width="140" height="50" as="geometry" />
        </mxCell>
        <mxCell id="qS1Gej-VdCPAyixQhets-130" style="edgeStyle=orthogonalEdgeStyle;rounded=0;orthogonalLoop=1;jettySize=auto;html=1;exitX=1;exitY=0.5;exitDx=0;exitDy=0;entryX=0;entryY=0.5;entryDx=0;entryDy=0;" edge="1" parent="1" source="qS1Gej-VdCPAyixQhets-126" target="qS1Gej-VdCPAyixQhets-129">
          <mxGeometry relative="1" as="geometry" />
        </mxCell>
        <mxCell id="qS1Gej-VdCPAyixQhets-131" value="YES" style="edgeLabel;html=1;align=center;verticalAlign=middle;resizable=0;points=[];" vertex="1" connectable="0" parent="qS1Gej-VdCPAyixQhets-130">
          <mxGeometry x="-0.3241" y="1" relative="1" as="geometry">
            <mxPoint x="6" y="1" as="offset" />
          </mxGeometry>
        </mxCell>
        <mxCell id="qS1Gej-VdCPAyixQhets-146" style="edgeStyle=orthogonalEdgeStyle;rounded=0;orthogonalLoop=1;jettySize=auto;html=1;exitX=0.5;exitY=1;exitDx=0;exitDy=0;" edge="1" parent="1" source="qS1Gej-VdCPAyixQhets-126">
          <mxGeometry relative="1" as="geometry">
            <mxPoint x="430" y="1130" as="targetPoint" />
          </mxGeometry>
        </mxCell>
        <mxCell id="qS1Gej-VdCPAyixQhets-126" value="&lt;font face=&quot;Times New Roman&quot;&gt;&lt;span style=&quot;font-size: 15px;&quot;&gt;pos &amp;gt; min servo position&lt;/span&gt;&lt;/font&gt;" style="rhombus;whiteSpace=wrap;html=1;" vertex="1" parent="1">
          <mxGeometry x="540" y="1010" width="140" height="70" as="geometry" />
        </mxCell>
        <mxCell id="qS1Gej-VdCPAyixQhets-163" style="edgeStyle=orthogonalEdgeStyle;rounded=0;orthogonalLoop=1;jettySize=auto;html=1;exitX=1;exitY=0.5;exitDx=0;exitDy=0;" edge="1" parent="1" source="qS1Gej-VdCPAyixQhets-129">
          <mxGeometry relative="1" as="geometry">
            <mxPoint x="930" y="1045" as="targetPoint" />
          </mxGeometry>
        </mxCell>
        <mxCell id="qS1Gej-VdCPAyixQhets-129" value="&lt;font face=&quot;Times New Roman&quot; style=&quot;font-size: 15px;&quot;&gt;Gripper servo rotate counter clockwise&lt;/font&gt;" style="rounded=0;whiteSpace=wrap;html=1;" vertex="1" parent="1">
          <mxGeometry x="720" y="1022.5" width="160" height="45" as="geometry" />
        </mxCell>
        <mxCell id="qS1Gej-VdCPAyixQhets-149" style="edgeStyle=orthogonalEdgeStyle;rounded=0;orthogonalLoop=1;jettySize=auto;html=1;exitX=0;exitY=0.5;exitDx=0;exitDy=0;entryX=0;entryY=0.5;entryDx=0;entryDy=0;" edge="1" parent="1" source="qS1Gej-VdCPAyixQhets-141" target="qS1Gej-VdCPAyixQhets-12">
          <mxGeometry relative="1" as="geometry" />
        </mxCell>
        <mxCell id="qS1Gej-VdCPAyixQhets-141" value="&lt;font face=&quot;Times New Roman&quot;&gt;&lt;span style=&quot;font-size: 15px;&quot;&gt;Turn off all motors and relay&lt;/span&gt;&lt;/font&gt;" style="rounded=0;whiteSpace=wrap;html=1;" vertex="1" parent="1">
          <mxGeometry x="350" y="1130" width="160" height="45" as="geometry" />
        </mxCell>
        <mxCell id="qS1Gej-VdCPAyixQhets-151" value="" style="endArrow=classic;html=1;rounded=0;exitX=1;exitY=0.5;exitDx=0;exitDy=0;" edge="1" parent="1" source="qS1Gej-VdCPAyixQhets-35">
          <mxGeometry width="50" height="50" relative="1" as="geometry">
            <mxPoint x="800" y="170" as="sourcePoint" />
            <mxPoint x="200" y="1150" as="targetPoint" />
            <Array as="points">
              <mxPoint x="930" y="145" />
              <mxPoint x="930" y="1200" />
              <mxPoint x="490" y="1200" />
              <mxPoint x="200" y="1200" />
            </Array>
          </mxGeometry>
        </mxCell>
      </root>
    </mxGraphModel>
  </diagram>
</mxfile>
